<?xml version="1.0" standalone="no"?>
<!DOCTYPE svg PUBLIC "-//W3C//DTD SVG 20010904//EN"
 "http://www.w3.org/TR/2001/REC-SVG-20010904/DTD/svg10.dtd">
<svg version="1.0" xmlns="http://www.w3.org/2000/svg"
 width="175.000000pt" height="175.000000pt" viewBox="0 0 175.000000 175.000000"
 preserveAspectRatio="xMidYMid meet">
<metadata>
Created by potrace 1.11, written by Peter Selinger 2001-2013
</metadata>
<g transform="translate(0.000000,175.000000) scale(0.100000,-0.100000)"
fill="#000000" stroke="none">
<path d="M855 1693 c-16 -2 -44 -11 -62 -19 -17 -7 -37 -14 -45 -14 -22 0
-174 -47 -243 -76 -33 -13 -74 -24 -92 -24 -52 0 -150 -76 -128 -99 3 -3 10 1
14 8 5 7 14 12 20 10 6 -2 -8 -25 -30 -51 -22 -27 -37 -48 -32 -49 4 0 -2 -4
-14 -9 -25 -10 -96 -103 -108 -140 -4 -14 -13 -32 -20 -40 -7 -8 -19 -34 -26
-58 -11 -37 -10 -45 2 -53 13 -8 6 -13 -13 -10 -5 0 -8 -8 -8 -18 0 -11 -4
-22 -9 -25 -8 -5 -10 -21 -12 -73 0 -10 -8 -35 -17 -56 -12 -31 -13 -43 -4
-58 7 -10 12 -31 12 -46 0 -16 5 -35 10 -43 6 -10 9 4 7 45 -2 54 0 60 18 60
12 0 21 -8 23 -20 2 -11 8 -29 13 -41 16 -31 7 -119 -11 -119 -8 0 -16 10 -18
23 -7 47 -20 19 -21 -43 0 -49 3 -65 14 -65 14 0 29 -22 61 -90 9 -19 26 -48
37 -64 12 -17 24 -48 27 -69 4 -33 11 -42 46 -61 23 -12 55 -33 72 -47 16 -13
53 -40 81 -59 29 -19 60 -43 69 -52 9 -9 31 -20 47 -24 17 -4 48 -17 70 -29
22 -13 46 -21 53 -18 7 3 18 1 25 -5 17 -14 144 -35 200 -33 33 1 47 -2 47
-11 0 -10 2 -10 8 -1 5 8 31 13 67 13 124 0 138 1 159 12 11 7 27 11 34 10 6
-2 12 1 12 6 0 6 11 13 25 16 27 7 203 149 212 172 3 8 11 14 18 14 20 0 154
149 161 179 4 14 27 87 52 161 43 130 44 137 42 245 -1 60 -2 122 -2 138 1 15
-3 27 -8 27 -6 0 -10 7 -10 15 0 32 -49 0 -51 -33 0 -14 -2 -13 -9 3 -5 14 -2
26 12 41 21 23 35 94 18 94 -5 0 -10 9 -10 20 0 11 -5 20 -11 20 -5 0 -8 4 -4
9 3 5 -5 30 -18 54 -13 24 -32 67 -42 96 -15 40 -26 54 -54 67 -48 22 -101 73
-101 97 0 13 -5 17 -15 13 -9 -3 -40 10 -70 29 -30 19 -66 36 -80 37 -14 1
-25 5 -25 9 0 4 -15 12 -32 19 -18 8 -40 19 -48 25 -8 7 -42 15 -75 18 -58 6
-59 5 -27 -8 36 -16 38 -21 17 -49 -23 -30 -19 -55 6 -49 11 3 23 12 26 19 6
16 35 18 61 5 9 -5 34 -16 55 -25 20 -8 37 -20 37 -26 0 -5 6 -10 14 -10 19 0
28 -15 30 -51 4 -54 -59 -92 -84 -51 -9 15 -14 13 -44 -21 -19 -21 -37 -34
-40 -29 -3 5 -16 7 -30 5 -28 -6 -62 26 -71 68 -8 33 -11 35 -32 13 -12 -12
-26 -14 -57 -8 -22 4 -48 8 -57 9 -20 1 -38 20 -61 62 -25 44 -23 55 17 81 41
26 58 28 75 7 16 -20 22 -19 48 5 21 19 23 20 47 4 28 -18 55 -13 55 11 0 9
-12 18 -31 22 -17 3 -33 12 -36 20 -10 26 -68 43 -128 36z m65 -43 c0 -5 -4
-10 -9 -10 -6 0 -13 5 -16 10 -3 6 1 10 9 10 9 0 16 -4 16 -10z m-190 -86 c0
-8 -9 -14 -20 -14 -11 0 -20 5 -20 11 0 5 5 7 10 4 6 -3 10 1 10 10 0 9 5 13
10 10 6 -3 10 -13 10 -21z m-245 -33 c-3 -12 -13 -28 -22 -36 -11 -11 -13 -26
-8 -55 7 -40 23 -54 117 -103 21 -10 51 -39 68 -63 l29 -44 -24 -6 c-14 -3
-25 -10 -25 -16 0 -5 -9 -6 -20 -3 -24 7 -27 -10 -4 -19 9 -3 29 -6 46 -6 23
0 29 -4 24 -15 -6 -17 22 -35 43 -27 33 11 33 -44 1 -73 -17 -16 -20 -15 -51
14 -17 17 -37 31 -44 31 -18 0 -38 -51 -25 -64 5 -5 10 -18 10 -28 0 -10 5
-27 12 -38 10 -15 9 -22 -3 -37 -24 -27 -34 -47 -21 -39 7 4 12 2 12 -3 0 -6
-7 -11 -15 -11 -11 0 -14 -10 -13 -39 1 -31 4 -38 17 -34 9 3 21 12 28 20 8
11 16 12 30 5 16 -9 12 -13 -27 -31 -32 -14 -39 -20 -23 -20 22 -1 36 -15 39
-38 3 -16 -8 -17 -23 -2 -7 7 -12 2 -16 -19 -5 -25 -9 -28 -36 -24 -24 3 -31
0 -31 -12 0 -9 -7 -16 -15 -16 -18 0 -20 -17 -3 -22 8 -3 7 -11 -5 -28 -22
-32 -22 -51 1 -43 11 4 7 -3 -10 -20 -16 -14 -23 -29 -18 -32 19 -12 10 -22
-14 -18 -21 4 -23 8 -16 34 7 23 5 29 -6 29 -8 0 -12 5 -9 10 3 6 -5 10 -18
10 -14 0 -28 6 -31 12 -45 90 -66 109 -104 92 -9 -4 -24 -8 -32 -8 -8 -1 -19
-11 -25 -23 -5 -13 -15 -23 -22 -23 -7 0 -13 -5 -13 -12 0 -6 -3 -8 -7 -5 -3
4 4 17 16 28 13 12 19 24 14 28 -18 12 -36 74 -36 120 0 25 -4 52 -10 59 -7 8
-5 12 6 12 9 0 21 8 26 18 8 13 10 14 11 2 0 -8 9 -21 20 -28 13 -8 20 -23 20
-42 0 -17 5 -30 10 -30 6 0 10 4 10 9 0 5 8 7 19 4 10 -3 22 0 26 7 5 8 10 8
21 -1 21 -17 30 17 10 40 -9 10 -16 25 -16 34 0 9 -4 17 -10 17 -5 0 -10 6
-10 14 0 8 -13 20 -30 28 -16 7 -30 16 -30 20 0 9 40 21 47 14 3 -3 12 6 19
20 12 22 11 27 -7 45 -19 19 -22 19 -38 5 -15 -14 -18 -13 -30 6 -11 17 -11
22 0 29 11 6 10 9 -4 15 -9 3 -14 10 -11 15 3 5 0 9 -5 9 -6 0 -11 -7 -11 -15
0 -21 -18 -19 -23 3 -4 13 -5 12 -6 -5 0 -12 4 -23 10 -25 7 -2 -1 -19 -19
-40 -17 -19 -29 -38 -26 -41 9 -8 -4 -57 -15 -57 -16 0 -19 27 -11 91 16 117
31 156 65 169 13 5 31 24 40 42 8 18 28 56 44 83 17 28 35 60 40 73 6 12 17
22 25 22 8 0 23 16 35 35 11 19 26 35 33 35 7 0 19 9 26 20 12 19 52 42 60 35
2 -2 1 -13 -3 -24z m835 -7 c0 -2 -9 0 -20 6 -11 6 -20 13 -20 16 0 2 9 0 20
-6 11 -6 20 -13 20 -16z m75 -73 c-8 -25 40 -74 64 -66 12 3 21 0 25 -10 4
-10 2 -14 -5 -9 -12 7 23 -47 54 -82 16 -19 17 -25 5 -45 -7 -13 -17 -27 -22
-30 -4 -4 5 -17 22 -29 22 -16 32 -33 36 -64 11 -69 6 -74 -70 -62 -64 9 -87
3 -90 -24 -1 -6 -2 -14 -3 -20 -2 -15 -41 -12 -41 3 0 14 92 112 128 137 12 8
22 19 22 24 0 5 -8 2 -18 -7 -17 -16 -18 -15 -14 18 4 33 2 35 -25 35 -16 0
-35 6 -42 13 -10 10 -15 9 -25 -5 -12 -16 -13 -14 -14 14 0 18 2 37 6 42 13
22 9 34 -15 45 -23 11 -24 15 -18 64 4 28 12 60 17 70 11 22 31 12 23 -12z
m41 -22 c19 -22 19 -22 -3 -10 -24 12 -39 31 -25 31 5 0 17 -10 28 -21z m-681
-119 c10 -11 29 -20 42 -20 14 0 21 -4 18 -10 -3 -5 0 -10 8 -10 8 0 18 8 21
17 6 14 8 14 22 -5 8 -12 24 -22 35 -22 10 0 19 -6 19 -13 0 -8 9 -24 19 -36
11 -12 18 -31 16 -42 -2 -11 0 -17 6 -14 5 4 9 13 9 21 0 8 10 14 22 14 17 0
19 -3 10 -12 -17 -17 -15 -39 2 -32 10 4 16 -5 21 -26 5 -21 12 -30 20 -26 20
7 65 -32 58 -49 -4 -11 -1 -13 11 -9 14 6 15 -1 9 -62 -4 -38 -7 -92 -7 -121
1 -38 -2 -50 -12 -46 -9 3 -11 -2 -7 -16 6 -23 -6 -28 -25 -9 -18 18 -15 35 8
41 11 3 20 11 20 17 0 10 -3 10 -14 1 -11 -10 -20 -10 -36 -1 -12 7 -38 10
-57 8 -32 -4 -34 -2 -28 19 4 16 0 25 -10 30 -22 8 -45 -15 -27 -26 14 -8 6
-41 -9 -41 -6 0 -21 7 -35 16 -19 13 -22 19 -12 31 9 11 7 19 -12 36 -12 12
-20 17 -16 11 3 -7 -5 -13 -23 -16 -22 -3 -31 0 -34 13 -3 10 0 20 7 22 14 5
7 13 -23 22 -16 5 -21 4 -17 -4 4 -6 2 -11 -4 -11 -7 0 -10 7 -7 15 4 8 2 17
-2 20 -5 2 -11 14 -14 25 -3 12 -1 18 5 14 6 -4 6 2 -1 14 -6 12 -7 23 -2 26
5 3 12 22 15 41 7 34 28 47 42 24 5 -8 9 -8 14 1 4 7 23 14 41 16 51 6 55 19
15 50 -26 21 -32 31 -25 41 8 9 2 11 -26 6 -34 -6 -37 -4 -33 18 3 21 -1 24
-27 25 -46 1 -51 4 -35 14 11 7 11 10 2 10 -7 0 -10 5 -7 10 10 16 30 12 50
-10z m-75 -4 c0 -2 -7 -6 -15 -10 -8 -3 -15 -1 -15 4 0 6 7 10 15 10 8 0 15
-2 15 -4z m485 -106 c3 -5 1 -10 -4 -10 -6 0 -11 5 -11 10 0 6 2 10 4 10 3 0
8 -4 11 -10z m405 -10 c0 -5 -2 -10 -4 -10 -3 0 -8 5 -11 10 -3 6 -1 10 4 10
6 0 11 -4 11 -10z m-840 -14 c0 -3 -4 -8 -10 -11 -5 -3 -10 -1 -10 4 0 6 5 11
10 11 6 0 10 -2 10 -4z m546 -15 c-4 -5 -1 -12 4 -14 6 -3 5 -4 -2 -3 -15 3
-23 26 -8 26 6 0 9 -4 6 -9z m103 -22 c-24 -15 -45 -11 -24 5 11 8 24 12 28 9
5 -3 3 -9 -4 -14z m186 -171 l8 -23 4 23 4 23 20 -25 c14 -18 19 -38 17 -66
-2 -38 -4 -41 -25 -35 -13 3 -23 1 -23 -5 0 -5 12 -13 26 -16 18 -5 23 -11 18
-23 -3 -9 -8 -25 -11 -36 -4 -19 -4 -19 10 -2 13 16 18 16 36 5 28 -17 26 -24
-9 -31 -18 -4 -30 -13 -30 -22 0 -8 -7 -15 -15 -15 -8 0 -15 -6 -15 -14 0 -8
-12 -17 -26 -20 -25 -7 -26 -8 -8 -21 18 -14 18 -14 -3 -15 -13 0 -23 4 -23 9
0 5 -23 7 -52 4 l-53 -5 -2 42 c0 24 -6 46 -12 49 -5 4 -8 22 -6 41 3 19 0 37
-5 40 -21 13 11 70 47 85 20 8 51 28 69 45 41 36 49 37 59 8z m-840 -87 c-3
-6 -11 -11 -17 -11 -6 0 -6 6 2 15 14 17 26 13 15 -4z m165 -61 c10 -18 13
-18 51 -5 36 13 40 13 35 0 -8 -22 25 -87 41 -81 17 7 17 -5 -1 -29 -10 -13
-11 -25 -5 -37 7 -12 4 -18 -9 -22 -12 -4 -19 -18 -20 -41 -3 -42 5 -43 61
-10 30 17 47 21 57 15 12 -8 11 -10 -5 -10 -17 -1 -16 -4 10 -25 41 -34 61
-31 81 10 14 29 14 38 3 51 -11 14 -10 18 6 27 29 17 47 14 77 -10 24 -18 36
-21 83 -16 46 5 55 3 55 -10 0 -9 -4 -18 -10 -22 -6 -4 -6 -15 1 -32 7 -20 6
-28 -6 -37 -26 -19 -4 -62 36 -70 18 -3 38 -11 44 -16 13 -11 8 -63 -5 -55 -5
3 -2 -8 7 -25 14 -30 14 -32 -14 -55 -32 -28 -53 -32 -53 -11 0 10 -9 14 -27
13 -22 -2 -29 4 -37 28 -13 37 -23 45 -58 45 -16 0 -38 9 -50 20 -48 43 -54
48 -75 54 -13 4 -23 13 -23 19 0 7 -11 20 -24 29 -21 15 -27 15 -67 2 -24 -9
-50 -20 -56 -26 -9 -8 -13 -7 -13 3 0 9 -3 10 -8 3 -4 -6 -17 -16 -29 -23 -21
-11 -23 -9 -20 11 1 17 -4 24 -21 26 -18 3 -22 8 -16 20 7 15 9 36 13 99 1 8
10 9 31 3 17 -5 30 -5 30 0 0 13 -37 22 -59 15 -12 -3 -21 0 -25 10 -4 10 -2
14 5 9 8 -4 9 1 4 16 -5 15 -4 20 4 16 6 -4 11 -2 11 4 0 7 -6 10 -14 7 -19
-8 -38 16 -30 37 4 10 1 16 -9 16 -20 0 -39 24 -32 42 6 14 39 36 57 37 4 1
12 -8 18 -19z m-719 -78 c7 -20 6 -21 -11 -9 -11 6 -20 18 -20 25 0 20 22 9
31 -16z m1490 -25 c-1 -4 -1 -11 -1 -17 0 -5 -8 -10 -17 -10 -12 0 -18 8 -18
24 0 19 4 22 18 17 10 -4 18 -10 18 -14z m-1499 -64 c-3 -16 -7 -22 -10 -15
-4 13 4 42 11 42 2 0 2 -12 -1 -27z m62 -28 c-4 -8 -8 -15 -10 -15 -2 0 -4 7
-4 15 0 8 4 15 10 15 5 0 7 -7 4 -15z m522 -50 c31 -31 27 -49 -10 -52 -49 -4
-92 59 -48 70 30 8 32 7 58 -18z m-538 -41 c-4 -6 -4 -14 0 -19 4 -4 -5 0 -20
10 -34 21 -35 29 -5 50 21 15 22 14 28 -7 3 -13 2 -28 -3 -34z m82 45 c0 -5
-16 -9 -35 -7 -19 1 -35 5 -35 8 0 3 16 6 35 7 19 1 35 -3 35 -8z m90 -100 c7
-12 7 -19 1 -19 -15 0 -42 31 -35 41 7 12 21 3 34 -22z m201 9 c11 2 19 -7 23
-23 7 -27 25 -32 44 -13 9 9 12 9 12 0 0 -27 19 -10 23 21 3 26 4 23 5 -14 2
-50 43 -112 68 -102 8 3 14 1 14 -4 0 -5 -10 -9 -22 -10 -12 -1 -29 -11 -38
-22 -11 -14 -24 -18 -47 -15 -18 2 -33 -1 -33 -6 0 -6 -11 -10 -25 -10 -14 0
-25 -5 -25 -12 0 -6 -6 -3 -14 7 -11 16 -19 17 -46 9 -30 -8 -32 -11 -18 -25
9 -8 18 -24 20 -35 2 -10 10 -18 16 -17 14 3 16 -13 3 -21 -5 -3 -12 1 -15 10
-4 10 -12 14 -22 10 -23 -9 -43 11 -36 36 4 16 2 20 -10 15 -12 -4 -22 8 -38
46 -13 29 -31 64 -42 80 -17 23 -17 27 -3 27 19 0 49 -27 58 -52 9 -25 26 -23
20 2 -7 26 4 25 27 -2 17 -21 19 -22 37 -7 10 9 23 15 29 12 6 -2 14 8 16 21
4 19 -1 30 -18 41 -13 8 -30 15 -39 15 -25 0 -17 17 13 25 15 4 21 10 15 12
-7 3 -13 9 -13 14 0 5 10 4 23 -3 12 -7 29 -11 38 -10z m73 -3 c4 -11 -2 -15
-21 -15 -21 0 -24 2 -13 15 7 8 16 15 20 15 4 0 10 -7 14 -15z m316 -35 c0 -5
-7 -10 -16 -10 -8 0 -12 5 -9 10 3 6 10 10 16 10 5 0 9 -4 9 -10z m-496 -21
c-3 -5 0 -17 7 -25 10 -13 14 -12 30 2 11 10 22 14 26 11 3 -4 1 -7 -5 -7 -6
0 -9 -7 -6 -15 9 -23 -24 -30 -46 -10 -20 18 -29 72 -10 60 6 -4 8 -11 4 -16z
m-32 -14 c3 -14 2 -25 -2 -25 -14 0 -32 29 -25 40 11 17 22 11 27 -15z m468
-6 c0 -5 4 -8 9 -4 6 3 15 -3 21 -12 8 -13 13 -15 17 -5 4 10 8 10 19 1 25
-21 15 -31 -28 -27 -42 3 -43 2 -40 -25 2 -15 -2 -35 -7 -45 -8 -13 -10 -6
-11 33 0 28 -3 60 -6 73 -5 16 -2 22 10 22 9 0 16 -5 16 -11z m-580 -80 c17
-17 29 -36 27 -43 -12 -35 -87 8 -87 50 0 33 22 30 60 -7z m680 11 c0 -6 -8
-14 -17 -17 -10 -4 -24 -13 -31 -20 -18 -17 -32 -17 -32 1 0 8 -3 21 -6 30 -5
13 2 16 40 16 25 0 46 -5 46 -10z m-224 -20 c12 0 14 -12 12 -57 -2 -39 1 -57
10 -59 7 -1 8 0 3 2 -14 7 10 44 27 44 7 0 11 -4 7 -9 -3 -6 4 -15 15 -21 25
-14 26 -30 1 -23 -10 3 -22 0 -25 -6 -14 -23 -38 -10 -53 29 -9 22 -19 37 -24
35 -4 -3 -10 -1 -13 4 -4 5 -2 12 4 16 6 4 8 11 4 16 -3 5 -9 7 -14 4 -5 -3
-12 0 -16 6 -8 14 16 31 34 24 8 -3 20 -5 28 -5z m406 -31 c2 -5 11 -11 20
-12 9 -2 24 -9 34 -17 13 -12 18 -12 21 -2 7 19 26 14 21 -6 -3 -10 1 -23 9
-30 22 -21 15 -39 -18 -51 -39 -13 -79 -14 -99 -1 -12 8 -10 10 10 10 l25 1
-25 11 c-24 11 -24 11 18 20 23 5 42 13 42 19 0 5 -19 10 -42 11 -51 1 -56 2
-87 15 -23 9 -23 9 10 26 40 19 56 21 61 6z m-58 -154 c3 -8 1 -15 -5 -15 -6
0 -7 -5 -3 -12 4 -6 -5 -3 -19 8 -33 24 -33 29 -3 32 13 1 27 -5 30 -13z m-74
-4 c0 -6 -4 -13 -10 -16 -5 -3 -10 1 -10 9 0 9 5 16 10 16 6 0 10 -4 10 -9z
m-195 -61 c0 -17 -43 -25 -64 -11 -22 14 -2 32 32 29 20 -2 32 -8 32 -18z"/>
<path d="M382 1448 c-18 -18 -15 -49 4 -41 11 4 12 8 4 13 -9 6 -8 10 5 17 10
6 13 13 8 16 -5 4 -15 1 -21 -5z"/>
<path d="M435 1300 c6 -17 3 -19 -23 -14 -17 3 -38 2 -47 -4 -16 -9 -16 -11 4
-31 11 -11 21 -24 20 -28 -1 -15 72 -26 84 -13 9 10 9 14 -1 17 -6 3 -10 8 -7
13 3 4 23 -1 45 -12 39 -20 73 -17 38 3 -9 5 -14 17 -11 27 5 22 -14 40 -49
44 -15 2 -30 7 -34 11 -14 14 -25 7 -19 -13z"/>
<path d="M520 1150 c20 -13 33 -13 25 0 -3 6 -14 10 -23 10 -15 0 -15 -2 -2
-10z"/>
<path d="M395 1075 c-16 -14 -26 -25 -21 -25 5 0 3 -6 -3 -14 -8 -10 -8 -16 2
-25 8 -6 17 -7 21 -3 4 4 14 -2 22 -13 13 -18 15 -18 31 -2 13 13 15 20 5 29
-9 9 -12 9 -12 0 0 -6 -6 -9 -14 -6 -8 3 -13 11 -10 18 5 14 32 15 52 2 15 -9
32 1 32 19 0 18 -30 28 -46 14 -11 -9 -14 -7 -14 10 0 27 -8 26 -45 -4z"/>
<path d="M336 1011 c-3 -5 1 -11 9 -15 8 -3 15 -1 15 4 0 13 -18 22 -24 11z"/>
<path d="M490 970 c0 -5 7 -10 16 -10 8 0 12 5 9 10 -3 6 -10 10 -16 10 -5 0
-9 -4 -9 -10z"/>
<path d="M476 941 c-4 -6 -4 -21 0 -33 6 -19 7 -19 16 -5 11 20 -5 57 -16 38z"/>
<path d="M430 886 c0 -7 7 -19 15 -26 16 -13 20 -3 9 24 -8 20 -24 21 -24 2z"/>
<path d="M190 820 c0 -5 5 -10 11 -10 5 0 7 5 4 10 -3 6 -8 10 -11 10 -2 0 -4
-4 -4 -10z"/>
<path d="M530 785 c-7 -8 -8 -15 -2 -15 5 0 15 7 22 15 7 8 8 15 2 15 -5 0
-15 -7 -22 -15z"/>
<path d="M406 771 c-4 -7 -5 -15 -2 -18 9 -9 19 4 14 18 -4 11 -6 11 -12 0z"/>
<path d="M485 770 c-3 -5 -1 -10 4 -10 6 0 11 5 11 10 0 6 -2 10 -4 10 -3 0
-8 -4 -11 -10z"/>
<path d="M455 730 c-3 -5 1 -10 9 -10 9 0 16 5 16 10 0 6 -4 10 -9 10 -6 0
-13 -4 -16 -10z"/>
<path d="M390 700 c0 -5 7 -10 15 -10 8 0 15 5 15 10 0 6 -7 10 -15 10 -8 0
-15 -4 -15 -10z"/>
<path d="M925 1080 c-3 -5 -2 -10 4 -10 5 0 13 5 16 10 3 6 2 10 -4 10 -5 0
-13 -4 -16 -10z"/>
<path d="M850 1040 c0 -11 4 -20 9 -20 5 0 11 9 14 20 3 13 0 20 -9 20 -8 0
-14 -9 -14 -20z"/>
<path d="M770 1015 c-10 -12 -10 -15 4 -15 9 0 16 7 16 15 0 8 -2 15 -4 15 -2
0 -9 -7 -16 -15z"/>
<path d="M1023 931 c-29 -37 -29 -43 4 -59 33 -15 40 -8 45 43 4 50 -17 57
-49 16z"/>
<path d="M890 870 c0 -5 5 -10 10 -10 6 0 10 5 10 10 0 6 -4 10 -10 10 -5 0
-10 -4 -10 -10z"/>
<path d="M901 776 c-10 -12 -9 -14 8 -9 28 7 54 -4 45 -19 -10 -16 -13 -48 -4
-48 12 0 30 24 30 41 0 33 -59 59 -79 35z"/>
<path d="M1100 550 c0 -5 5 -10 11 -10 5 0 7 5 4 10 -3 6 -8 10 -11 10 -2 0
-4 -4 -4 -10z"/>
<path d="M181 561 c-8 -5 -9 -11 -3 -15 5 -3 12 1 16 9 6 17 6 18 -13 6z"/>
<path d="M673 383 c-1 -24 -1 -25 7 -8 11 26 12 35 2 35 -4 0 -8 -12 -9 -27z"/>
<path d="M570 389 c0 -9 10 -19 22 -22 28 -8 37 0 12 10 -10 3 -22 11 -26 17
-5 7 -8 5 -8 -5z"/>
<path d="M450 326 c0 -2 7 -7 16 -10 8 -3 12 -2 9 4 -6 10 -25 14 -25 6z"/>
</g>
</svg>
