<?xml version="1.0" encoding="UTF-8" standalone="no"?>
<svg
   xmlns:dc="http://purl.org/dc/elements/1.1/"
   xmlns:cc="http://creativecommons.org/ns#"
   xmlns:rdf="http://www.w3.org/1999/02/22-rdf-syntax-ns#"
   xmlns:svg="http://www.w3.org/2000/svg"
   xmlns="http://www.w3.org/2000/svg"
   xmlns:sodipodi="http://sodipodi.sourceforge.net/DTD/sodipodi-0.dtd"
   xmlns:inkscape="http://www.inkscape.org/namespaces/inkscape"
   width="80"
   height="18"
   viewBox="0 0 80 18"
   fill="none"
   version="1.1"
   id="svg128"
   sodipodi:docname="logomark.svg"
   inkscape:version="1.0.1 (c497b03c, 2020-09-10)">
  <metadata
     id="metadata134">
    <rdf:RDF>
      <cc:Work
         rdf:about="">
        <dc:format>image/svg+xml</dc:format>
        <dc:type
           rdf:resource="http://purl.org/dc/dcmitype/StillImage" />
        <dc:title></dc:title>
      </cc:Work>
    </rdf:RDF>
  </metadata>
  <defs
     id="defs132" />
  <sodipodi:namedview
     pagecolor="#ffffff"
     bordercolor="#666666"
     borderopacity="1"
     objecttolerance="10"
     gridtolerance="10"
     guidetolerance="10"
     inkscape:pageopacity="0"
     inkscape:pageshadow="2"
     inkscape:window-width="1601"
     inkscape:window-height="1038"
     id="namedview130"
     showgrid="false"
     inkscape:zoom="9.1416667"
     inkscape:cx="59.927074"
     inkscape:cy="10.375114"
     inkscape:window-x="0"
     inkscape:window-y="0"
     inkscape:window-maximized="0"
     inkscape:current-layer="svg128" />
  <path
     d="M 6.8316,17.5414 5.6892,16.1427 v -4.8382 h 2.2399 c 3.8749,0 6.5403,-1.9949001 6.5403,-4.8612001 0,-2.3159 -1.6126,-4.4254999 -3.7405,-4.8381999 H 0 V 1.71975 L 1.1423,3.1184999 V 16.1427 L 0,17.5414 v 0.1147 H 6.8316 Z M 5.9356,2.3159 c 2.3071,0 4.0316998,1.8802999 4.0316998,4.4025999 0,2.27 -1.3886998,3.6229001 -3.6284998,3.6229001 H 5.6892 V 2.3159 Z"
     fill="#ff7979"
     id="path106" />
  <path
     d="m 21.4669,18 c 3.8973,0 6.406,-2.5682 6.406,-6.4433 0,-3.8064001 -2.4415,-6.2370001 -6.2268,-6.2370001 -3.8974,0 -6.3836,2.5682 -6.3836,6.4204001 0,3.8064 2.4414,6.2599 6.2044,6.2599 z m 0.3584,-1.0089 c -1.4559,0 -2.3295,-2.293 -2.3295,-6.0765 0,-3.0726001 0.6048,-4.6089001 1.7919,-4.6089001 1.4559,0 2.3518,2.2472 2.3518,6.0765001 0,3.0726 -0.6047,4.6089 -1.8142,4.6089 z"
     fill="#ff7979"
     id="path108" />
  <path
     d="m 34.3054,8.3923999 c 0.6048,-0.4586 1.232,-0.6879 1.8815,-0.6879 0.9855,0 1.5903,0.5961 1.5903,1.6738 V 16.2803 l -0.9855,1.2611 v 0.1147 h 6.1148 V 17.5414 L 41.9209,16.349 V 8.6216999 c 0,-1.9262 -1.4559,-3.302 -3.5165,-3.302 -1.5007,0 -2.867,0.7338 -4.0766,2.2013 H 34.171 l -0.1791,-2.2013 h -0.224 l -4.7709,1.1465 v 0.1147 l 1.1647,1.2841 V 16.349 l -0.9855,1.1924 v 0.1147 H 35.291 V 17.5414 L 34.3054,16.372 Z"
     fill="#ff7979"
     id="path110" />
  <path
     d="m 43.9825,12.1987 c 0,3.3707 1.9486,5.8013 4.5917,5.8013 1.3215,0 2.307,-0.5732 3.4717,-2.0178 h 0.1344 L 52.5387,18 57.2872,17.0828 V 16.9682 L 56.2569,15.7299 V 0 h -0.224 l -5.0621,1.16943 v 0.11465 l 1.1423,1.28412 v 3.0037999 c -0.2911,-0.1605 -0.9855,-0.2523 -1.7694,-0.2523 -3.651,0 -6.3612,2.9121 -6.3612,6.8790001 z m 3.9869,-1.7885 c 0,-2.5452001 1.0527,-4.0815001 2.755,-4.0815001 0.6048,0 1.0528,0.1605 1.3887,0.4586 V 15.2025 c -0.2015,0.2064 -0.5151,0.3211 -0.9183,0.3211 -1.8591,0 -3.2254,-2.1784 -3.2254,-5.1134 z"
     fill="#ff7979"
     id="path112" />
  <path
     d="m 64.463,18 c 2.957,0 5.018,-1.7656 5.533,-4.7924 l -0.112,-0.0687 c -0.918,1.3299 -2.173,1.9949 -3.741,1.9949 -2.307,0 -3.807,-1.651 -4.143,-4.3338 h 7.794 C 69.212,7.1540999 67.465,5.3196999 64.553,5.3196999 c -3.494,0 -6.0027,2.7287 -6.0027,6.4892001 0,3.6917 2.4187,6.1911 5.9127,6.1911 z M 61.932,9.7222999 c 0,-2.293 0.605,-3.4395 1.837,-3.4395 1.187,0 1.814,1.0089 2.24,3.6459 h -4.077 z"
     fill="#ff7979"
     id="path114" />
  <path
     d="m 71.108,17.5414 v 0.1147 h 6.339 V 17.5414 L 76.237,16.349 V 8.8509999 c 0.179,-0.3899 0.672,-0.7109 1.053,-0.7109 0.067,0 0.112,0 0.201,0.023 l 2.397,1.6509 H 80 v -4.1732 c -0.179,-0.2064 -0.493,-0.3211 -0.941,-0.3211 -1.052,0 -1.859,0.7109 -2.822,2.5223 h -0.134 l -0.18,-2.5223 h -0.224 l -4.77,1.1695 v 0.0917 l 1.164,1.2841 V 16.349 Z"
     fill="#ff7979"
     id="path116" />
</svg>
