<?xml version="1.0" standalone="no"?>
<!DOCTYPE svg PUBLIC "-//W3C//DTD SVG 20010904//EN"
 "http://www.w3.org/TR/2001/REC-SVG-20010904/DTD/svg10.dtd">
<svg version="1.0" xmlns="http://www.w3.org/2000/svg"
 width="1040.000000pt" height="1040.000000pt" viewBox="0 0 1040.000000 1040.000000"
 preserveAspectRatio="xMidYMid meet">
<metadata>
Created by potrace 1.11, written by Peter Selinger 2001-2013
</metadata>
<g transform="translate(0.000000,1040.000000) scale(0.100000,-0.100000)"
fill="#ff7979" stroke="none">
<path d="M4348 10395 c-2 -2 -68 -6 -148 -9 -194 -8 -324 -15 -385 -21 -77 -8
-175 -16 -225 -20 -25 -2 -45 -4 -45 -5 0 -1 -20 -3 -45 -5 -60 -5 -132 -14
-205 -25 -33 -5 -80 -12 -105 -15 -45 -5 -84 -11 -130 -20 -14 -3 -38 -8 -55
-10 -16 -3 -53 -10 -81 -16 -28 -5 -62 -12 -77 -14 -40 -8 -238 -55 -272 -65
-16 -5 -70 -21 -120 -35 -49 -15 -99 -30 -110 -35 -11 -4 -54 -20 -95 -35 -41
-15 -99 -39 -129 -52 -30 -14 -72 -33 -95 -44 -85 -38 -237 -128 -253 -149 -6
-8 -16 -15 -21 -15 -18 0 -158 -127 -238 -216 -12 -13 -41 -55 -66 -94 -80
-127 -116 -219 -133 -340 -3 -19 -7 -51 -10 -71 -3 -20 -8 -62 -11 -93 -6 -64
-9 -90 -19 -181 -9 -80 -12 -106 -20 -200 -3 -41 -8 -95 -10 -120 -9 -88 -16
-176 -20 -240 -2 -36 -4 -65 -5 -65 -1 0 -6 -81 -15 -225 -34 -592 -40 -856
-40 -1760 1 -454 4 -937 8 -1075 4 -137 9 -329 12 -425 3 -96 7 -238 10 -315
3 -77 8 -201 10 -275 3 -74 7 -196 10 -270 3 -74 7 -191 10 -260 2 -69 6 -183
10 -255 3 -71 8 -191 10 -265 3 -74 8 -187 10 -250 13 -339 17 -447 18 -562 1
-71 4 -128 7 -128 3 0 6 -64 7 -143 1 -78 5 -216 8 -307 12 -386 15 -554 20
-1085 2 -308 5 -565 5 -572 0 -9 72 -11 312 -7 172 2 454 6 625 8 172 3 317 7
322 10 5 4 12 2 16 -4 4 -6 11 -8 16 -4 6 3 140 8 297 10 158 2 436 6 617 9
182 3 501 8 711 11 209 3 388 6 398 8 17 2 19 21 21 302 3 269 6 367 20 599 8
122 22 307 31 405 3 30 7 71 9 90 3 37 7 71 31 285 4 28 8 61 10 75 3 14 5 32
5 40 1 8 8 62 16 120 8 58 16 119 18 135 7 52 16 116 20 133 1 10 6 37 9 62 3
25 8 56 10 70 3 14 9 52 15 85 19 113 20 118 35 192 3 11 8 43 12 70 9 53 10
61 14 68 4 7 5 15 14 65 18 100 19 105 41 195 9 39 18 79 20 90 2 11 8 37 13
58 6 20 8 37 5 37 -3 0 0 7 7 15 7 8 10 15 7 15 -3 0 1 23 9 52 9 28 18 60 20
70 2 10 6 27 9 39 2 11 7 29 10 39 3 10 8 27 10 37 7 34 74 258 100 333 14 41
27 82 30 90 2 8 14 45 27 81 l22 66 102 67 c56 36 107 66 113 66 6 0 11 3 11
8 0 4 9 12 19 17 220 114 350 179 411 205 41 18 89 38 105 45 17 7 57 23 90
36 33 13 65 26 70 30 6 3 28 12 50 19 22 7 55 19 72 27 18 7 36 14 40 15 5 0
33 9 63 20 30 11 64 21 76 24 12 2 54 15 95 28 41 13 108 33 149 46 41 12 82
24 90 27 8 3 22 7 30 9 58 12 692 229 757 259 17 8 35 15 40 15 4 1 26 9 48
20 22 11 43 19 47 20 16 0 255 115 365 175 90 49 257 155 261 166 2 5 8 9 13
9 13 0 160 114 236 184 85 77 129 122 184 187 24 29 49 57 54 63 6 6 28 36 50
66 22 30 42 57 45 60 3 3 10 14 17 25 7 11 39 64 72 118 33 53 58 97 55 97 -3
0 3 12 14 27 16 24 31 54 37 73 2 9 15 64 21 90 8 39 12 55 14 55 2 0 4 15 14
80 4 22 9 51 12 65 3 14 7 45 10 70 3 25 7 61 9 80 9 78 15 128 21 195 9 85 9
674 0 765 -3 36 -8 90 -10 120 -5 49 -9 88 -21 185 -2 17 -6 41 -9 55 -3 14
-7 44 -10 65 -2 22 -7 52 -11 67 -4 15 -8 40 -10 55 -2 15 -6 39 -9 53 -3 14
-11 50 -17 80 -72 357 -219 731 -394 1001 -64 99 -199 245 -284 309 -18 14
-48 37 -66 53 -18 15 -37 27 -43 27 -6 0 -12 4 -14 9 -6 17 -179 123 -297 181
-66 33 -123 60 -126 60 -3 0 -27 9 -52 21 -25 11 -53 22 -62 24 -9 2 -36 11
-61 20 -25 9 -79 25 -120 36 -41 11 -97 26 -125 34 -27 7 -63 16 -80 18 -35 7
-181 34 -210 40 -18 4 -107 19 -130 22 -62 8 -135 18 -155 21 -97 14 -181 26
-215 29 -22 2 -55 6 -72 9 -18 3 -45 8 -60 10 -16 2 -50 8 -78 12 -84 12 -88
13 -150 18 -63 6 -213 13 -665 31 -147 6 -1327 15 -1332 10z m2461 -1810 c25
-13 59 -36 75 -51 35 -35 80 -128 73 -153 -2 -11 -1 -25 4 -32 4 -7 5 -18 1
-23 -3 -6 -7 -21 -8 -33 -2 -13 -24 -72 -50 -131 -236 -539 -438 -898 -679
-1207 -52 -67 -161 -190 -225 -254 -168 -169 -354 -305 -540 -394 -89 -43
-270 -111 -270 -102 0 3 -12 0 -26 -6 -15 -5 -42 -12 -62 -15 -19 -3 -44 -8
-56 -10 -79 -18 -269 -23 -346 -10 -74 12 -211 61 -280 101 -156 88 -334 256
-486 460 -57 76 -184 272 -184 284 0 6 -4 11 -9 11 -5 0 -11 8 -15 18 -3 9
-18 37 -32 62 -49 85 -149 275 -144 275 1 0 -12 24 -29 53 -17 29 -31 55 -31
59 0 3 -22 51 -49 107 -27 55 -58 124 -70 151 -12 28 -31 67 -41 88 -11 22
-20 45 -20 53 0 8 -4 14 -10 14 -5 0 -10 6 -10 13 0 8 -13 41 -30 75 -16 34
-30 64 -30 67 0 2 -13 34 -30 70 -46 101 -53 162 -25 245 17 53 71 113 127
141 47 24 146 38 179 26 57 -22 64 -24 69 -23 3 0 25 -17 49 -39 40 -37 91
-122 91 -151 0 -7 3 -14 8 -16 4 -1 22 -39 41 -83 19 -44 52 -118 74 -165 22
-47 50 -110 64 -140 56 -123 208 -425 218 -432 5 -4 6 -8 1 -8 -5 0 -3 -8 5
-17 25 -31 49 -80 42 -87 -3 -3 -2 -6 4 -6 6 0 18 -15 27 -32 9 -18 34 -62 56
-97 22 -34 40 -66 40 -70 0 -4 8 -16 18 -27 9 -10 36 -47 60 -81 43 -65 53
-78 112 -147 93 -109 194 -187 282 -217 82 -27 206 -16 350 32 105 34 243 105
296 150 11 9 24 18 29 20 19 7 108 84 184 159 72 71 116 120 184 205 17 21 35
43 40 49 31 35 195 283 195 294 0 6 4 12 8 14 5 2 28 39 53 83 24 44 49 89 56
100 19 33 233 461 233 468 0 5 37 87 87 194 19 42 67 87 123 118 60 33 161 33
229 0z"/>
</g>
</svg>
